<svg xmlns="http://www.w3.org/2000/svg" version="1.1" xmlns:xlink="http://www.w3.org/1999/xlink" xmlns:svgjs="http://svgjs.dev/svgjs" width="1500" height="1500" viewBox="0 0 1500 1500"><rect width="1500" height="1500" fill="#ffffff"></rect><g transform="matrix(0.6666666666666666,0,0,0.6666666666666666,249.39393939393938,435.99032258064517)"><svg viewBox="0 0 396 248" data-background-color="#ffffff" preserveAspectRatio="xMidYMid meet" height="939" width="1500" xmlns="http://www.w3.org/2000/svg" xmlns:xlink="http://www.w3.org/1999/xlink"><g id="tight-bounds" transform="matrix(1,0,0,1,0.2400000000000091,0.4000000000000057)"><svg viewBox="0 0 395.52 247.2" height="247.2" width="395.52"><g><svg></svg></g><g><svg viewBox="0 0 395.52 247.2" height="247.2" width="395.52"><g transform="matrix(1,0,0,1,75.54432,83.1663595954328)"><svg viewBox="0 0 244.43135999999998 80.8672808091344" height="80.8672808091344" width="244.43135999999998"><g><svg viewBox="0 0 244.43135999999998 80.8672808091344" height="80.8672808091344" width="244.43135999999998"><g><svg viewBox="0 0 244.43135999999998 80.8672808091344" height="80.8672808091344" width="244.43135999999998"><g><svg viewBox="0 0 244.43135999999998 80.8672808091344" height="80.8672808091344" width="244.43135999999998"><g id="textblocktransform"><svg viewBox="0 0 244.43135999999998 80.8672808091344" height="80.8672808091344" width="244.43135999999998" id="textblock"><g><svg viewBox="0 0 244.43135999999998 48.414870380793076" height="48.414870380793076" width="244.43135999999998"><g transform="matrix(1,0,0,1,0,0)"><svg width="244.43135999999998" viewBox="0.4 -32.55 169.37333333332998 33.55" height="48.414870380793076" data-palette-color="#e09f05"><path d="M16.3 0.5L13.95 0.5 5.65-25.5Q4.85-27.55 4.05-28.45 3.25-29.35 1.65-29.65L1.65-29.65Q0.95-29.8 0.68-29.9 0.4-30 0.4-30.8L0.4-30.8Q0.4-31.65 1-31.73 1.6-31.8 2.4-31.8L2.4-31.8Q5.75-31.75 7.6-30.58 9.45-29.4 10.55-26.55L10.55-26.55 16.25-8.25 16.45-8.25 22.55-31.55 25.15-31.55 33.3-8.25 33.45-8.25 39.1-27.1Q39.5-28.7 39.08-29.13 38.65-29.55 36.9-29.55L36.9-29.55Q36.4-29.55 36.05-29.65 35.7-29.75 35.65-30.6L35.65-30.6Q35.65-31 35.85-31.35 36.05-31.7 36.5-31.7L36.5-31.7Q38.1-31.65 39.28-31.6 40.45-31.55 41.95-31.55L41.95-31.55Q42.95-31.55 43.6-31.58 44.25-31.6 44.93-31.63 45.6-31.65 46.65-31.7L46.65-31.7Q47.15-31.7 47.35-31.35 47.55-31 47.55-30.6L47.55-30.6Q47.5-29.75 47.18-29.65 46.85-29.55 46.3-29.55L46.3-29.55Q44.4-29.55 43.18-28.83 41.95-28.1 41.4-26.15L41.4-26.15 33.2 0.5 30.85 0.5 22.75-23.35 16.3 0.5ZM57.45 0.6L57.45 0.6Q53.6 0.6 50.97-1.05 48.35-2.7 47.05-5.45 45.75-8.2 45.75-11.45L45.75-11.45Q45.75-13.65 46.52-15.73 47.3-17.8 48.75-19.53 50.2-21.25 52.25-22.25 54.3-23.25 56.9-23.25L56.9-23.25Q61.5-23.25 63.82-20.88 66.15-18.5 66.5-14.85L66.5-14.85Q66.5-13.1 65.52-12.55 64.55-12 63-12L63-12 50.85-12Q50.85-9.1 51.65-6.83 52.45-4.55 54.17-3.23 55.9-1.9 58.75-1.9L58.75-1.9Q60.85-1.9 62.35-2.8 63.85-3.7 65.25-5.95L65.25-5.95Q65.65-6.45 66.35-6L66.35-6Q66.75-5.8 66.85-5.38 66.95-4.95 66.75-4.65L66.75-4.65Q65.2-2.2 62.85-0.8 60.5 0.6 57.45 0.6ZM50.85-13.9L50.85-13.9 59-13.9Q60.2-13.9 60.92-14.38 61.65-14.85 61.7-16L61.7-16Q61.7-18.15 60.52-19.83 59.35-21.5 56.9-21.5L56.9-21.5Q54.4-21.5 52.72-19.5 51.05-17.5 50.85-13.9ZM86.7 1L86.7 1Q82.5 1 79-1 75.5-3 73.37-6.7 71.25-10.4 71.25-15.55L71.25-15.55Q71.25-20.65 73.25-24.48 75.25-28.3 78.92-30.43 82.6-32.55 87.6-32.55L87.6-32.55Q89.4-32.55 91.32-32.2 93.25-31.85 94.9-31.03 96.55-30.2 97.57-28.85 98.6-27.5 98.6-25.5L98.6-25.5Q98.65-23.35 97.3-21.73 95.95-20.1 93.5-20.1L93.5-20.1Q92-20.1 91.37-20.83 90.75-21.55 90.8-21.9L90.8-21.9Q90.8-22.05 91.42-22.43 92.05-22.8 92.67-23.58 93.3-24.35 93.3-25.65L93.3-25.65Q93.3-27.9 91.8-29.23 90.3-30.55 87.55-30.55L87.55-30.55Q84.55-30.55 82.17-28.85 79.8-27.15 78.45-23.88 77.1-20.6 77.1-15.85L77.1-15.85Q77.1-11.85 78.52-8.58 79.95-5.3 82.52-3.38 85.1-1.45 88.5-1.45L88.5-1.45Q91.2-1.45 93.12-2.58 95.05-3.7 96.6-6.2L96.6-6.2Q97.05-7.05 98.2-6.35L98.2-6.35Q98.65-6.05 98.9-5.63 99.15-5.2 98.8-4.75L98.8-4.75Q96.9-2.35 95.2-1.13 93.5 0.1 91.5 0.55 89.5 1 86.7 1ZM109.14 0.6L109.14 0.6Q106.09 0.6 104.27-1.15 102.44-2.9 102.44-5.35L102.44-5.35Q102.44-7.9 103.77-9.35 105.09-10.8 107.27-11.5 109.44-12.2 112.02-12.45 114.59-12.7 117.04-12.85L117.04-12.85 117.04-16.8Q117.04-19.15 115.87-20.48 114.69-21.8 111.89-21.8L111.89-21.8Q110.49-21.8 109.27-20.9 108.04-20 108.04-18.3L108.04-18.3Q108.04-17.5 108.44-16.95 108.84-16.4 109.24-16.1 109.64-15.8 109.64-15.7L109.64-15.7Q109.64-15.5 109.07-14.98 108.49-14.45 107.49-14.45L107.49-14.45Q105.94-14.45 105.09-15.6 104.24-16.75 104.24-18.15L104.24-18.15Q104.24-20.05 105.42-21.15 106.59-22.25 108.44-22.75 110.29-23.25 112.19-23.25L112.19-23.25Q114.44-23.25 116.57-22.7 118.69-22.15 120.07-20.6 121.44-19.05 121.44-15.95L121.44-15.95 121.44-4.3Q121.49-3.8 121.69-3.1 121.89-2.4 122.47-1.88 123.04-1.35 124.04-1.35L124.04-1.35Q124.39-1.35 124.59-1.23 124.79-1.1 124.79-0.55L124.79-0.55Q124.79-0.1 124.29 0.15 123.79 0.4 123.14 0.5 122.49 0.6 122.04 0.6L122.04 0.6Q120.19 0.6 118.74-0.48 117.29-1.55 117.04-3.45L117.04-3.45Q115.94-1.45 113.77-0.43 111.59 0.6 109.14 0.6ZM110.74-2.1L110.74-2.1Q112.44-2.1 113.87-2.95 115.29-3.8 116.17-5.28 117.04-6.75 117.04-8.55L117.04-8.55 117.04-11.4Q111.89-11.05 109.69-9.75 107.49-8.45 107.49-5.5L107.49-5.5Q107.49-2.1 110.74-2.1ZM127.99 0.15L127.99 0.15Q127.64 0.15 127.42-0.18 127.19-0.5 127.19-0.85L127.19-0.85Q127.29-1.6 127.59-1.68 127.89-1.75 128.39-1.75L128.39-1.75Q129.79-1.75 130.29-2.23 130.79-2.7 130.87-3.5 130.94-4.3 130.94-5.15L130.94-5.15 130.94-16.6Q130.94-17.5 130.87-18.28 130.79-19.05 130.29-19.53 129.79-20 128.39-20L128.39-20Q127.94-20 127.57-20.13 127.19-20.25 127.19-21L127.19-21Q127.19-21.75 127.99-21.9L127.99-21.9Q130.29-22.25 131.52-22.6 132.74-22.95 133.37-23.2 133.99-23.45 134.49-23.5L134.49-23.5Q134.89-23.55 135.17-23.35 135.44-23.15 135.44-22.55L135.44-22.55 135.44-19.45 135.59-19.45Q137.29-21.1 139.09-22.18 140.89-23.25 142.39-23.25L142.39-23.25Q144.14-23.25 145.07-21.95 145.99-20.65 145.99-19.2L145.99-19.2Q145.99-17.95 145.19-16.78 144.39-15.6 142.79-15.6L142.79-15.6Q141.99-15.6 141.52-15.93 141.04-16.25 140.99-16.4L140.99-16.4Q140.99-16.5 141.47-17 141.94-17.5 141.94-18.25L141.94-18.25Q141.94-19.15 141.47-19.7 140.99-20.25 140.19-20.25L140.19-20.25Q139.34-20.25 138.02-19.4 136.69-18.55 135.49-17.35L135.49-17.35 135.49-5.15Q135.49-4.3 135.57-3.5 135.64-2.7 136.17-2.23 136.69-1.75 138.09-1.75L138.09-1.75Q138.54-1.75 138.87-1.68 139.19-1.6 139.24-0.85L139.24-0.85Q139.24-0.5 139.04-0.18 138.84 0.15 138.44 0.15L138.44 0.15Q136.99 0.05 135.77 0.03 134.54 0 133.19 0L133.19 0Q131.84 0 130.64 0.03 129.44 0.05 127.99 0.15ZM160.34 0.6L160.34 0.6Q156.49 0.6 153.86-1.05 151.24-2.7 149.94-5.45 148.64-8.2 148.64-11.45L148.64-11.45Q148.64-13.65 149.41-15.73 150.19-17.8 151.64-19.53 153.09-21.25 155.14-22.25 157.19-23.25 159.79-23.25L159.79-23.25Q164.39-23.25 166.71-20.88 169.04-18.5 169.39-14.85L169.39-14.85Q169.39-13.1 168.41-12.55 167.44-12 165.89-12L165.89-12 153.74-12Q153.74-9.1 154.54-6.83 155.34-4.55 157.06-3.23 158.79-1.9 161.64-1.9L161.64-1.9Q163.74-1.9 165.24-2.8 166.74-3.7 168.14-5.95L168.14-5.95Q168.54-6.45 169.24-6L169.24-6Q169.64-5.8 169.74-5.38 169.84-4.95 169.64-4.65L169.64-4.65Q168.09-2.2 165.74-0.8 163.39 0.6 160.34 0.6ZM153.74-13.9L153.74-13.9 161.89-13.9Q163.09-13.9 163.81-14.38 164.54-14.85 164.59-16L164.59-16Q164.59-18.15 163.41-19.83 162.24-21.5 159.79-21.5L159.79-21.5Q157.29-21.5 155.61-19.5 153.94-17.5 153.74-13.9Z" opacity="1" transform="matrix(1,0,0,1,0,0)" fill="#e09f05" class="wordmark-text-0" data-fill-palette-color="primary" id="text-0"></path></svg></g></svg></g><g transform="matrix(1,0,0,1,0,59.84445932080918)"><svg viewBox="0 0 244.43135999999998 21.02282148832521" height="21.02282148832521" width="244.43135999999998"><g transform="matrix(1,0,0,1,0,0)"><svg width="244.43135999999998" viewBox="2.2 -37.75 595.24 51.2" height="21.02282148832521" data-palette-color="#e09f05"><path d="M29.6-5.45L29.6-5.45Q30.25-5.25 30.48-4.8 30.7-4.35 30.75-3.8L30.75-3.8Q28.45-1.5 25.55-0.25 22.65 1 19.35 1L19.35 1Q16 1 12.93-0.1 9.85-1.2 7.43-3.48 5-5.75 3.6-9.22 2.2-12.7 2.2-17.5L2.2-17.5Q2.2-22.25 3.78-25.73 5.35-29.2 7.93-31.48 10.5-33.75 13.63-34.88 16.75-36 19.85-36L19.85-36Q23.5-36 26.23-35.43 28.95-34.85 30.95-33.75L30.95-33.75Q31.05-31.45 30.58-29.45 30.1-27.45 29.4-25.55L29.4-25.55Q28.9-25.5 28.3-25.55 27.7-25.6 27.2-25.8L27.2-25.8 26.65-32.25Q25-32.95 23.5-33.15 22-33.35 20.2-33.35L20.2-33.35Q16.7-33.35 13.93-31.25 11.15-29.15 9.58-25.55 8-21.95 8-17.5L8-17.5Q8-12.8 9.35-9.22 10.7-5.65 13.35-3.65 16-1.65 19.9-1.65L19.9-1.65Q23-1.65 25.35-2.75 27.7-3.85 29.6-5.45ZM40.9 0.85L40.9 0.85Q37.9 0.85 35.85-0.73 33.8-2.3 33.8-5.5L33.8-5.5Q33.8-8 35.02-9.6 36.25-11.2 38.32-12.08 40.4-12.95 42.95-13.25 45.5-13.55 48.15-13.5L48.15-13.5 48.2-17.9Q48.25-20.7 47.15-22.23 46.05-23.75 43.8-23.75L43.8-23.75Q42.55-23.75 41.4-23.58 40.25-23.4 39.1-23L39.1-23 38.45-17.7Q38.05-17.5 37.35-17.48 36.65-17.45 36.25-17.5L36.25-17.5Q35.8-19.15 35.5-20.8 35.2-22.45 35.25-24L35.25-24Q37.6-25.1 39.97-25.55 42.35-26 45.15-26L45.15-26Q47.95-26 49.67-25.1 51.4-24.2 52.22-22 53.05-19.8 53.05-15.85L53.05-15.85 53.05-2.45Q53.9-2.05 54.8-1.88 55.7-1.7 56.55-1.45L56.55-1.45Q56.7-0.5 56.3 0.3L56.3 0.3Q55.5 0.45 54.37 0.55 53.25 0.65 52.1 0.65L52.1 0.65Q50.45 0.65 49.25 0.35L49.25 0.35 48.55-2.25 48.35-2.25Q47.1-0.95 45.25-0.05 43.4 0.85 40.9 0.85ZM42.8-1.9L42.8-1.9Q44.2-1.9 45.8-2.78 47.4-3.65 48.15-4.75L48.15-4.75 48.15-11.5Q43-11.5 40.9-10.28 38.8-9.05 38.8-6L38.8-6Q38.8-3.95 39.9-2.93 41-1.9 42.8-1.9ZM67.1-16.85L67.1-2.5 71.95-1.5Q72.1-0.55 71.7 0.25L71.7 0.25Q70.8 0.2 69.47 0.15 68.15 0.1 66.85 0.05 65.55 0 64.6 0L64.6 0Q63.2 0 61.55 0.08 59.9 0.15 58.5 0.25L58.5 0.25Q58.35-0.7 58.6-1.5L58.6-1.5Q59.55-1.75 60.47-1.95 61.4-2.15 62.1-2.5L62.1-2.5 62.1-22 57.95-22.4Q57.8-23.4 58.2-24.15L58.2-24.15Q60-24.4 61.82-24.75 63.65-25.1 65.2-25.5L65.2-25.5Q65.7-25.45 66.02-25.33 66.35-25.2 66.85-24.95L66.85-24.95 66.85-20.4 66.9-20.35Q68.45-22.65 70.37-24.25 72.3-25.85 74.5-25.85L74.5-25.85Q75.35-25.85 76.17-25.73 77-25.6 77.8-25.1L77.8-25.1Q77.9-23.05 77.62-21.2 77.35-19.35 76.8-17.6L76.8-17.6Q76.45-17.55 75.7-17.57 74.95-17.6 74.55-17.8L74.55-17.8 73.85-22.8Q72.1-22.8 70.32-21.53 68.55-20.25 67.1-16.85L67.1-16.85ZM88.84-24.95L88.84-2.5 92.19-1.5Q92.34-0.55 91.94 0.25L91.94 0.25Q90.59 0.15 89.17 0.08 87.74 0 86.34 0L86.34 0Q84.94 0 83.29 0.08 81.64 0.15 80.24 0.25L80.24 0.25Q80.09-0.7 80.34-1.5L80.34-1.5Q81.29-1.75 82.22-1.95 83.14-2.15 83.84-2.5L83.84-2.5 83.84-22 79.69-22.4Q79.54-23.4 79.94-24.15L79.94-24.15Q81.74-24.4 83.57-24.75 85.39-25.1 86.94-25.5L86.94-25.5Q87.44-25.45 87.89-25.33 88.34-25.2 88.84-24.95L88.84-24.95ZM85.49-30.05L85.49-30.05Q84.64-30.05 83.94-30.6 83.24-31.15 82.84-31.95 82.44-32.75 82.44-33.45L82.44-33.45Q82.44-34.1 82.99-34.77 83.54-35.45 84.37-35.93 85.19-36.4 85.99-36.4L85.99-36.4Q86.89-36.4 87.59-35.83 88.29-35.25 88.67-34.48 89.04-33.7 89.04-33L89.04-33Q89.04-32.35 88.52-31.65 87.99-30.95 87.17-30.5 86.34-30.05 85.49-30.05ZM102.89-25.05L102.74-21.65 102.79-21.6Q105.19-24 107.74-24.9 110.29-25.8 112.19-25.8L112.19-25.8Q115.44-25.8 117.32-23.95 119.19-22.1 119.19-18.55L119.19-18.55 119.24-2.5 122.74-1.5Q122.89-0.55 122.49 0.25L122.49 0.25Q121.14 0.15 119.64 0.08 118.14 0 116.74 0L116.74 0Q115.34 0 113.79 0.08 112.24 0.15 110.84 0.25L110.84 0.25Q110.69-0.7 110.94-1.5L110.94-1.5Q111.94-1.7 112.72-1.95 113.49-2.2 114.24-2.5L114.24-2.5 114.24-16.3Q114.24-19.7 113.19-21 112.14-22.3 109.84-22.3L109.84-22.3Q107.99-22.3 106.24-21.58 104.49-20.85 103.14-19.3L103.14-19.3 103.14-2.5 106.49-1.5Q106.64-0.55 106.24 0.25L106.24 0.25Q104.89 0.15 103.47 0.08 102.04 0 100.64 0L100.64 0Q99.24 0 97.59 0.08 95.94 0.15 94.54 0.25L94.54 0.25Q94.39-0.7 94.64-1.5L94.64-1.5Q95.54-1.75 96.44-1.98 97.34-2.2 98.14-2.5L98.14-2.5 98.14-22 93.99-22.4Q93.84-23.4 94.24-24.15L94.24-24.15Q96.09-24.45 97.84-24.8 99.59-25.15 101.19-25.5L101.19-25.5Q102.04-25.45 102.89-25.05L102.89-25.05ZM136.09-8.35L136.09-8.35Q135.19-8.35 134.24-8.47 133.29-8.6 132.29-8.9L132.29-8.9Q131.79-8.15 131.59-7.7 131.39-7.25 131.39-6.95L131.39-6.95Q131.39-6.5 131.74-6.05 132.09-5.6 133.59-5.18 135.09-4.75 138.49-4.35L138.49-4.35Q141.84-3.95 144.09-3.3 146.34-2.65 147.49-1.25 148.64 0.15 148.64 2.75L148.64 2.75Q148.64 5 147.54 6.6 146.44 8.2 144.59 9.25 142.74 10.3 140.54 10.8 138.34 11.3 136.09 11.3L136.09 11.3Q132.29 11.3 129.91 10.4 127.54 9.5 126.41 7.98 125.29 6.45 125.29 4.7L125.29 4.7Q125.29 2.9 126.29 1.13 127.29-0.65 129.99-1.75L129.99-1.75Q128.34-3.2 128.34-5.05L128.34-5.05Q128.34-6.7 128.96-7.78 129.59-8.85 130.39-9.6L130.39-9.6Q128.39-10.6 127.04-12.33 125.69-14.05 125.69-16.65L125.69-16.65Q125.69-19.05 126.64-20.7 127.59-22.35 129.14-23.35 130.69-24.35 132.51-24.8 134.34-25.25 136.09-25.25L136.09-25.25Q137.29-25.25 138.59-25.05 139.89-24.85 141.09-24.35L141.09-24.35 147.74-28.45Q148.14-28.25 148.49-27.55 148.84-26.85 149.04-26.08 149.24-25.3 149.14-24.8L149.14-24.8Q147.79-24.35 146.14-23.98 144.49-23.6 142.79-23.5L142.79-23.5Q144.39-22.55 145.44-20.85 146.49-19.15 146.49-16.65L146.49-16.65Q146.49-14.45 145.51-12.88 144.54-11.3 142.94-10.3 141.34-9.3 139.54-8.83 137.74-8.35 136.09-8.35ZM136.09-10.25L136.09-10.25Q138.64-10.25 140.29-12.08 141.94-13.9 141.94-16.75L141.94-16.75Q141.94-19.85 140.29-21.6 138.64-23.35 136.09-23.35L136.09-23.35Q133.54-23.35 131.89-21.6 130.24-19.85 130.24-16.75L130.24-16.75Q130.24-13.9 131.89-12.08 133.54-10.25 136.09-10.25ZM136.84-0.35L136.84-0.35Q135.94-0.5 134.56-0.65 133.19-0.8 131.79-1.15L131.79-1.15Q130.59-0.15 129.96 0.98 129.34 2.1 129.34 4L129.34 4Q129.34 6.1 131.14 7.75 132.94 9.4 136.34 9.4L136.34 9.4Q138.79 9.4 140.54 8.6 142.29 7.8 143.21 6.55 144.14 5.3 144.14 4.05L144.14 4.05Q144.14 2.55 143.11 1.7 142.09 0.85 140.41 0.38 138.74-0.1 136.84-0.35ZM177.53-31L176.98-35.4Q176.03-35.8 175.03-35.8L175.03-35.8Q173.03-35.8 172.08-33.73 171.13-31.65 171.13-28L171.13-28 171.13-23.75 178.13-23.75Q178.13-23.15 178.01-22.4 177.88-21.65 177.63-21.25L177.63-21.25 171.13-21.25 171.13-2.5 175.98-1.5Q176.13-0.55 175.73 0.25L175.73 0.25Q174.83 0.2 173.51 0.15 172.18 0.1 170.88 0.05 169.58 0 168.63 0L168.63 0Q167.23 0 165.58 0.08 163.93 0.15 162.53 0.25L162.53 0.25Q162.38-0.7 162.63-1.5L162.63-1.5Q163.53-1.7 164.43-1.93 165.33-2.15 166.13-2.5L166.13-2.5 166.13-21.25 162.88-21.25Q162.83-21.75 163.01-22.63 163.18-23.5 163.38-23.75L163.38-23.75 166.13-23.75 166.13-26.75Q166.13-31.85 168.48-34.8 170.83-37.75 174.63-37.75L174.63-37.75Q176.63-37.75 177.91-37.43 179.18-37.1 180.53-36.25L180.53-36.25Q180.38-34.85 180.16-33.48 179.93-32.1 179.58-30.8L179.58-30.8Q179.23-30.75 178.58-30.78 177.93-30.8 177.53-31L177.53-31ZM180.63-12.5L180.63-12.5Q180.63-16.4 182.16-19.45 183.68-22.5 186.53-24.25 189.38-26 193.23-26L193.23-26Q197.13-26 199.96-24.25 202.78-22.5 204.31-19.45 205.83-16.4 205.83-12.5L205.83-12.5Q205.83-8.5 204.31-5.45 202.78-2.4 199.96-0.7 197.13 1 193.23 1L193.23 1Q189.38 1 186.53-0.7 183.68-2.4 182.16-5.45 180.63-8.5 180.63-12.5ZM200.43-11.8L200.43-11.8Q200.43-15.15 199.68-17.88 198.93-20.6 197.33-22.23 195.73-23.85 193.13-23.85L193.13-23.85Q190.48-23.85 188.91-22.25 187.33-20.65 186.68-18 186.03-15.35 186.03-12.15L186.03-12.15Q186.03-9.25 186.78-6.73 187.53-4.2 189.16-2.68 190.78-1.15 193.33-1.15L193.33-1.15Q196.03-1.15 197.58-2.65 199.13-4.15 199.78-6.6 200.43-9.05 200.43-11.8ZM217.63-16.85L217.63-2.5 222.48-1.5Q222.63-0.55 222.23 0.25L222.23 0.25Q221.33 0.2 220 0.15 218.68 0.1 217.38 0.05 216.08 0 215.13 0L215.13 0Q213.73 0 212.08 0.08 210.43 0.15 209.03 0.25L209.03 0.25Q208.88-0.7 209.13-1.5L209.13-1.5Q210.08-1.75 211-1.95 211.93-2.15 212.63-2.5L212.63-2.5 212.63-22 208.48-22.4Q208.33-23.4 208.73-24.15L208.73-24.15Q210.53-24.4 212.35-24.75 214.18-25.1 215.73-25.5L215.73-25.5Q216.23-25.45 216.55-25.33 216.88-25.2 217.38-24.95L217.38-24.95 217.38-20.4 217.43-20.35Q218.98-22.65 220.9-24.25 222.83-25.85 225.03-25.85L225.03-25.85Q225.88-25.85 226.7-25.73 227.53-25.6 228.33-25.1L228.33-25.1Q228.43-23.05 228.15-21.2 227.88-19.35 227.33-17.6L227.33-17.6Q226.98-17.55 226.23-17.57 225.48-17.6 225.08-17.8L225.08-17.8 224.38-22.8Q222.63-22.8 220.85-21.53 219.08-20.25 217.63-16.85L217.63-16.85ZM260.22-16.05L260.22-2.5 264.57-1.5Q264.72-0.55 264.32 0.25L264.32 0.25Q262.97 0.15 261.05 0.08 259.12 0 257.72 0L257.72 0Q256.32 0 254.3 0.08 252.27 0.15 250.87 0.25L250.87 0.25Q250.72-0.7 250.97-1.5L250.97-1.5Q251.97-1.65 252.97-1.83 253.97-2 254.97-2.5L254.97-2.5 254.97-15.05 244.22-32.5 240.37-33.5Q240.22-34.45 240.62-35.25L240.62-35.25Q241.97-35.2 243.87-35.1 245.77-35 247.17-35L247.17-35Q248.12-35 249.4-35.05 250.67-35.1 251.97-35.15 253.27-35.2 254.17-35.25L254.17-35.25Q254.32-34.3 254.07-33.5L254.07-33.5Q253.07-33.35 252.05-33.18 251.02-33 250.02-32.5L250.02-32.5 258.27-18.3 258.47-18.3 266.77-32.5 262.92-33.5Q262.77-34.45 263.17-35.25L263.17-35.25Q264.52-35.2 265.97-35.1 267.42-35 268.82-35L268.82-35Q270.27-35 271.52-35.1 272.77-35.2 274.17-35.25L274.17-35.25Q274.32-34.3 274.07-33.5L274.07-33.5Q273.02-33.35 271.9-33.15 270.77-32.95 269.82-32.5L269.82-32.5 260.22-16.05ZM275.57-12.5L275.57-12.5Q275.57-16.4 277.1-19.45 278.62-22.5 281.47-24.25 284.32-26 288.17-26L288.17-26Q292.07-26 294.9-24.25 297.72-22.5 299.25-19.45 300.77-16.4 300.77-12.5L300.77-12.5Q300.77-8.5 299.25-5.45 297.72-2.4 294.9-0.7 292.07 1 288.17 1L288.17 1Q284.32 1 281.47-0.7 278.62-2.4 277.1-5.45 275.57-8.5 275.57-12.5ZM295.37-11.8L295.37-11.8Q295.37-15.15 294.62-17.88 293.87-20.6 292.27-22.23 290.67-23.85 288.07-23.85L288.07-23.85Q285.42-23.85 283.85-22.25 282.27-20.65 281.62-18 280.97-15.35 280.97-12.15L280.97-12.15Q280.97-9.25 281.72-6.73 282.47-4.2 284.1-2.68 285.72-1.15 288.27-1.15L288.27-1.15Q290.97-1.15 292.52-2.65 294.07-4.15 294.72-6.6 295.37-9.05 295.37-11.8ZM327.72-24.95L327.72-2.4Q328.57-1.9 329.47-1.75 330.37-1.6 331.22-1.4L331.22-1.4Q331.37-0.5 330.97 0.35L330.97 0.35Q330.17 0.5 329.09 0.6 328.02 0.7 326.87 0.7L326.87 0.7Q325.27 0.7 324.07 0.4L324.07 0.4 323.22-3.3 322.97-3.3Q320.42-1 318.24-0.1 316.07 0.8 313.52 0.8L313.52 0.8Q309.92 0.8 308.34-1.2 306.77-3.2 306.77-6.7L306.77-6.7 306.77-22 303.12-22.4Q302.97-23.4 303.37-24.15L303.37-24.15Q305.17-24.4 306.74-24.75 308.32-25.1 309.87-25.5L309.87-25.5Q310.37-25.45 310.82-25.33 311.27-25.2 311.77-24.95L311.77-24.95 311.77-7.45Q311.77-5.35 312.39-4.35 313.02-3.35 314.07-3.03 315.12-2.7 316.47-2.7L316.47-2.7Q318.07-2.7 319.82-3.65 321.57-4.6 322.72-5.9L322.72-5.9 322.72-22 319.07-22.4Q318.92-23.4 319.32-24.15L319.32-24.15Q321.12-24.4 322.69-24.75 324.27-25.1 325.82-25.5L325.82-25.5Q326.32-25.45 326.77-25.33 327.22-25.2 327.72-24.95L327.72-24.95ZM334.42-2.5L334.42-2.5Q334.42-3.75 335.37-4.53 336.32-5.3 337.77-5.3L337.77-5.3Q339.62-5.3 340.67-3.65L340.67-3.65Q341.72-2 341.72 0.05L341.72 0.05Q341.72 2.7 340.52 4.93 339.32 7.15 337.37 8.25L337.37 8.25Q336.52 7.95 336.07 6.85L336.07 6.85Q337.32 6.05 338.19 4.55 339.07 3.05 339.07 1.65L339.07 1.65Q339.07 0.75 337.32 0.75L337.32 0.75Q336.12 0.75 335.27-0.18 334.42-1.1 334.42-2.5ZM376.06-16.5L366.76-16.5 366.76-2.25 381.26-2.25 382.31-8.9Q382.91-9 383.24-8.97 383.56-8.95 384.06-8.75L384.06-8.75Q384.46-6.95 384.56-5.15 384.66-3.35 384.66-1.55L384.66-1.55 384.66 0 364.26 0Q362.86 0 360.94 0.08 359.01 0.15 357.61 0.25L357.61 0.25Q357.46-0.7 357.71-1.5L357.71-1.5Q358.66-1.7 359.61-1.93 360.56-2.15 361.51-2.5L361.51-2.5 361.51-32.5 357.66-33.5Q357.51-34.45 357.91-35.25L357.91-35.25Q359.26-35.2 360.94-35.1 362.61-35 364.01-35L364.01-35 383.26-35Q383.31-32.8 383.21-30.6 383.11-28.4 382.71-26.25L382.71-26.25Q382.21-26.05 381.86-26.05 381.51-26.05 380.91-26.1L380.91-26.1 379.61-32.75 366.76-32.75 366.76-19.25 376.06-19.25 377.01-23.65Q377.46-23.8 378.01-23.78 378.56-23.75 379.01-23.4L379.01-23.4Q378.91-22.3 378.86-20.9 378.81-19.5 378.81-18.05L378.81-18.05Q378.81-16.45 378.86-14.9 378.91-13.35 379.01-12.15L379.01-12.15Q378.56-11.95 378.01-11.95 377.46-11.95 377.01-12.05L377.01-12.05 376.06-16.5ZM400.36 1.5L390.46-22.5 386.61-23.5Q386.46-24.45 386.86-25.25L386.86-25.25Q388.21-25.2 389.88-25.1 391.56-25 392.96-25L392.96-25Q394.41-25 396.21-25.1 398.01-25.2 399.41-25.25L399.41-25.25Q399.56-24.3 399.31-23.5L399.31-23.5Q398.41-23.3 397.53-23.1 396.66-22.9 395.86-22.5L395.86-22.5 400.16-11.5Q400.86-9.8 401.38-8.1 401.91-6.4 402.26-4.7L402.26-4.7 402.41-4.7Q402.81-6.15 403.18-7.53 403.56-8.9 404.06-10.35L404.06-10.35 408.81-22.5 404.86-23.5Q404.71-24.45 405.11-25.25L405.11-25.25Q406.46-25.2 407.66-25.1 408.86-25 410.26-25L410.26-25Q411.71-25 412.88-25.1 414.06-25.2 415.46-25.25L415.46-25.25Q415.61-24.3 415.36-23.5L415.36-23.5Q414.41-23.3 413.48-23.1 412.56-22.9 411.81-22.5L411.81-22.5 402.61 0.85Q402.26 1.05 401.53 1.28 400.81 1.5 400.36 1.5L400.36 1.5ZM422.31-13.5L422.31-12.5Q422.31-7.45 424.33-4.67 426.36-1.9 429.86-1.9L429.86-1.9Q431.41-1.9 432.46-2.08 433.51-2.25 434.53-2.75 435.56-3.25 436.86-4.15L436.86-4.15Q437.66-3.8 437.76-2.95L437.76-2.95Q436.21-1.15 434.06-0.15 431.91 0.85 429.71 0.85L429.71 0.85Q425.91 0.85 423.06-0.75 420.21-2.35 418.61-5.35 417.01-8.35 417.01-12.5L417.01-12.5Q417.01-16.75 418.68-19.73 420.36-22.7 423.18-24.28 426.01-25.85 429.46-25.85L429.46-25.85Q433.91-25.85 436.03-22.88 438.16-19.9 438.16-15.2L438.16-15.2Q438.16-14.85 438.16-14.55 438.16-14.25 438.11-13.9L438.11-13.9 437.41-13.35 422.31-13.5ZM429.41-23.7L429.41-23.7Q427.96-23.7 426.53-22.8 425.11-21.9 424.01-20.1 422.91-18.3 422.51-15.55L422.51-15.55 433.41-16.15Q433.41-20 432.58-21.85 431.76-23.7 429.41-23.7ZM449.9-16.85L449.9-2.5 454.75-1.5Q454.9-0.55 454.5 0.25L454.5 0.25Q453.6 0.2 452.28 0.15 450.95 0.1 449.65 0.05 448.35 0 447.4 0L447.4 0Q446 0 444.35 0.08 442.7 0.15 441.3 0.25L441.3 0.25Q441.15-0.7 441.4-1.5L441.4-1.5Q442.35-1.75 443.28-1.95 444.2-2.15 444.9-2.5L444.9-2.5 444.9-22 440.75-22.4Q440.6-23.4 441-24.15L441-24.15Q442.8-24.4 444.63-24.75 446.45-25.1 448-25.5L448-25.5Q448.5-25.45 448.83-25.33 449.15-25.2 449.65-24.95L449.65-24.95 449.65-20.4 449.7-20.35Q451.25-22.65 453.18-24.25 455.1-25.85 457.3-25.85L457.3-25.85Q458.15-25.85 458.98-25.73 459.8-25.6 460.6-25.1L460.6-25.1Q460.7-23.05 460.43-21.2 460.15-19.35 459.6-17.6L459.6-17.6Q459.25-17.55 458.5-17.57 457.75-17.6 457.35-17.8L457.35-17.8 456.65-22.8Q454.9-22.8 453.13-21.53 451.35-20.25 449.9-16.85L449.9-16.85ZM467 13.45L467 13.45Q466.15 12.15 465.28 10.45 464.4 8.75 464.15 7.05L464.15 7.05Q464.45 6.8 465.03 6.58 465.6 6.35 466.05 6.35L466.05 6.35 469.25 10.1Q470.6 8.8 472.03 6.18 473.45 3.55 474.7 0.2L474.7 0.2 465.6-22.5 461.75-23.5Q461.6-24.45 462-25.25L462-25.25Q463.35-25.2 464.93-25.1 466.5-25 467.9-25L467.9-25Q469.35-25 471.03-25.1 472.7-25.2 474.1-25.25L474.1-25.25Q474.25-24.3 474-23.5L474-23.5Q473.1-23.3 472.23-23.1 471.35-22.9 470.55-22.5L470.55-22.5 474.7-12.45Q474.95-11.85 475.45-10.63 475.95-9.4 476.45-7.85 476.95-6.3 477.25-4.7L477.25-4.7 477.4-4.7Q477.7-5.85 478.05-7.38 478.4-8.9 479.35-11.35L479.35-11.35 483.6-22.5 480.15-23.5Q480-24.45 480.4-25.25L480.4-25.25Q481.75-25.2 482.83-25.1 483.9-25 485.3-25L485.3-25Q486.75-25 487.75-25.1 488.75-25.2 490.15-25.25L490.15-25.25Q490.3-24.3 490.05-23.5L490.05-23.5Q489.15-23.3 488.23-23.1 487.3-22.9 486.6-22.5L486.6-22.5 476.8 2.35Q475.5 5.65 473.9 8.15 472.3 10.65 470.55 12.05 468.8 13.45 467 13.45ZM514.85 0.95L514.85 0.95Q512 0.95 509.22 0.55 506.45 0.15 504.4-0.8L504.4-0.8Q504.4-2.95 504.72-5.13 505.05-7.3 505.7-9.5L505.7-9.5Q505.85-9.5 506-9.53 506.15-9.55 506.35-9.55L506.35-9.55Q507.25-9.55 507.9-9.25L507.9-9.25 508.7-2.6Q509.65-2.4 511.02-2.13 512.4-1.85 514.1-1.85L514.1-1.85Q515.9-1.85 517.8-2.3 519.7-2.75 521-3.93 522.3-5.1 522.3-7.3L522.3-7.3Q522.3-8.6 522.02-9.65 521.75-10.7 520.8-11.7 519.85-12.7 517.9-13.83 515.95-14.95 512.6-16.4L512.6-16.4Q509-18 507.27-19.6 505.55-21.2 505.05-22.98 504.55-24.75 504.55-26.8L504.55-26.8Q504.55-29.95 506.37-31.93 508.2-33.9 511.15-34.85 514.1-35.8 517.4-35.8L517.4-35.8Q519.6-35.8 521.8-35.43 524-35.05 525.9-34.3L525.9-34.3Q526-32 525.52-29.93 525.05-27.85 524.35-25.85L524.35-25.85Q524.2-25.8 524.02-25.8 523.85-25.8 523.7-25.8L523.7-25.8Q522.85-25.8 522.15-26.1L522.15-26.1 521.6-32.75Q520.55-33.05 519.4-33.23 518.25-33.4 517.1-33.4L517.1-33.4Q515.15-33.4 513.35-32.83 511.55-32.25 510.42-31 509.3-29.75 509.3-27.65L509.3-27.65Q509.3-26.25 509.8-25.13 510.3-24 511.82-22.93 513.35-21.85 516.45-20.45L516.45-20.45Q520.35-18.75 522.8-17.25 525.25-15.75 526.4-13.8 527.55-11.85 527.55-8.7L527.55-8.7Q527.55-6.25 526.45-4.42 525.35-2.6 523.5-1.43 521.65-0.25 519.4 0.35 517.15 0.95 514.85 0.95ZM539.34 0.8L539.34 0.8Q537.74 0.8 536.44 0.2 535.14-0.4 534.42-1.88 533.69-3.35 533.69-5.95L533.69-5.95 533.69-21.9 530.19-21.9Q529.89-22.45 529.87-23.03 529.84-23.6 529.94-24.15L529.94-24.15Q532.04-24.15 533.09-24.7 534.14-25.25 534.72-26.6 535.29-27.95 535.94-30.25L535.94-30.25 538.59-30.25 538.59-24.65 543.84-24.65Q544.54-23.2 543.84-21.9L543.84-21.9 538.59-21.9 538.59-7.2Q538.59-4.9 538.82-3.73 539.04-2.55 539.59-2.13 540.14-1.7 541.09-1.7L541.09-1.7Q541.89-1.7 542.64-2 543.39-2.3 544.09-2.7L544.09-2.7Q544.79-2.25 544.84-1.2L544.84-1.2Q544.29-0.55 542.84 0.13 541.39 0.8 539.34 0.8ZM552.49-13.5L552.49-12.5Q552.49-7.45 554.51-4.67 556.54-1.9 560.04-1.9L560.04-1.9Q561.59-1.9 562.64-2.08 563.69-2.25 564.72-2.75 565.74-3.25 567.04-4.15L567.04-4.15Q567.84-3.8 567.94-2.95L567.94-2.95Q566.39-1.15 564.24-0.15 562.09 0.85 559.89 0.85L559.89 0.85Q556.09 0.85 553.24-0.75 550.39-2.35 548.79-5.35 547.19-8.35 547.19-12.5L547.19-12.5Q547.19-16.75 548.87-19.73 550.54-22.7 553.37-24.28 556.19-25.85 559.64-25.85L559.64-25.85Q564.09-25.85 566.22-22.88 568.34-19.9 568.34-15.2L568.34-15.2Q568.34-14.85 568.34-14.55 568.34-14.25 568.29-13.9L568.29-13.9 567.59-13.35 552.49-13.5ZM559.59-23.7L559.59-23.7Q558.14-23.7 556.72-22.8 555.29-21.9 554.19-20.1 553.09-18.3 552.69-15.55L552.69-15.55 563.59-16.15Q563.59-20 562.76-21.85 561.94-23.7 559.59-23.7ZM579.34-25.1L579.29-23.1 579.54-22.85Q581.54-24.6 583.44-25.3 585.34-26 587.04-26L587.04-26Q590.44-26 592.74-24.18 595.04-22.35 596.24-19.4 597.44-16.45 597.44-13.15L597.44-13.15Q597.44-6.2 594.01-2.63 590.59 0.95 584.64 0.95L584.64 0.95Q583.69 0.95 582.21 0.65 580.74 0.35 579.54-0.15L579.54-0.15 579.54 10 583.89 11Q584.04 11.95 583.64 12.75L583.64 12.75Q582.29 12.65 580.36 12.58 578.44 12.5 577.04 12.5L577.04 12.5Q575.64 12.5 573.99 12.58 572.34 12.65 570.94 12.75L570.94 12.75Q570.79 11.8 571.04 11L571.04 11Q571.89 10.8 572.79 10.58 573.69 10.35 574.54 10L574.54 10 574.54-22 570.44-22.4Q570.29-23.4 570.69-24.15L570.69-24.15Q571.09-24.2 572.94-24.53 574.79-24.85 577.59-25.5L577.59-25.5Q578.14-25.45 578.54-25.35 578.94-25.25 579.34-25.1L579.34-25.1ZM579.54-20.2L579.54-2.95Q580.49-2.3 581.66-1.83 582.84-1.35 584.54-1.35L584.54-1.35Q588.29-1.35 590.21-4.38 592.14-7.4 592.14-12.85L592.14-12.85Q592.14-18 590.36-20.5 588.59-23 585.54-23L585.54-23Q583.69-23 581.96-22.08 580.24-21.15 579.54-20.2L579.54-20.2Z" opacity="1" transform="matrix(1,0,0,1,0,0)" fill="#e09f05" class="slogan-text-1" data-fill-palette-color="secondary" id="text-1"></path></svg></g></svg></g></svg></g></svg></g></svg></g></svg></g></svg></g><g><path d="M0 123.6c0-68.262 55.338-123.6 123.6-123.6 51.948 0 96.412 32.048 114.697 77.452l-2.358 0c-18.164-44.17-61.62-75.269-112.339-75.269-67.057 0-121.417 54.36-121.417 121.417 0 67.057 54.36 121.417 121.417 121.417 50.719 0 94.175-31.099 112.339-75.269h2.358c-18.285 45.404-62.749 77.452-114.697 77.452-68.262 0-123.6-55.338-123.6-123.6z" fill="#e09f05" stroke="transparent" data-fill-palette-color="tertiary"></path></g></svg></g><defs></defs></svg><rect width="395.52" height="247.2" fill="none" stroke="none" visibility="hidden"></rect></g></svg></g></svg>